# xmcd CD database file
#
# Track frame offsets:
#	150
#	13689
#	26647
#	39514
#	55220
#	68553
#	83085
#	96561
#	110076
#	123713
#	136850
#	150465
#	161655
#	180707
#	195481
#	209252
#	223681
#	237573
#	251081
#	267091
#	283076
#	297906
#	312330
#
# Disc length: 4378 seconds
#
# Revision: 1
# Processed by: cddbd v1.5.2PL0 Copyright (c) Steve Scherf et al.
# Submitted via: CDex 1.70beta2
#
DISCID=59111817
DTITLE=Lotta Sax Appeal - Body and Soul (The Pioneers)
DYEAR=2003
DGENRE=Jazz
TTITLE0=Singin' The Blues (Frankie Trumbauer)
TTITLE1=At the Jazz Band Ball (Adrian Rollini)
TTITLE2=Oh, Baby! (Frank Teschemacher)
TTITLE3=(If I Could Be With You) One Hour Tonight (Coleman Hawkins)
TTITLE4=Maple Leaf Rag (Sidney Bechet)
TTITLE5=The Eel (Bud Freeman)
TTITLE6=Lotta Sax Appeal (Dick Wilson)
TTITLE7=Show Shine Swing (Lester Young)
TTITLE8=Crazy Rhythm (Benny Carter)
TTITLE9=Jeeps Blues (Johnny Hodges)
TTITLE10=At Sundown (Bud Freeman)
TTITLE11=I Hear You Talkin' (Eddie Miller)
TTITLE12=Summertime (Sidney Bechet)
TTITLE13=Lester Leaps In (Lester Young)
TTITLE14=Body and Soul (Coleman Hawkins)
TTITLE15=Cottontail (Ben Webster)
TTITLE16=Pick-Up Boys (Coleman Hawkins, Georgie Auld, Ben Webster)
TTITLE17=D. B. Blues (Lester Young)
TTITLE18=Passion Flower (Johnny Hodges)
TTITLE19=Frustration (Harry Carney)
TTITLE20=Picasso (Coleman Hawkins)
TTITLE21=Stardust (Ben Webster)
TTITLE22=Stardust (Lester Young)
EXTD=YEAR: 2003
EXTT0=
EXTT1=
EXTT2=
EXTT3=
EXTT4=
EXTT5=
EXTT6=
EXTT7=
EXTT8=
EXTT9=
EXTT10=
EXTT11=
EXTT12=
EXTT13=
EXTT14=
EXTT15=
EXTT16=
EXTT17=
EXTT18=
EXTT19=
EXTT20=
EXTT21=
EXTT22=
PLAYORDER=
